<svg width="32" height="32" viewBox="0 0 32 32" fill="none" xmlns="http://www.w3.org/2000/svg">
<g clip-path="url(#clip0_2_25)">
<path fill-rule="evenodd" clip-rule="evenodd" d="M10.7938 17.0625C11.286 19.4874 13.4299 21.3125 16 21.3125C18.5701 21.3125 20.714 19.4874 21.2062 17.0625H31.9653C31.9883 16.7113 32 16.357 32 16C32 15.643 31.9883 15.2887 31.9653 14.9375H21.2062C20.714 12.5126 18.5701 10.6875 16 10.6875C13.4299 10.6875 11.286 12.5126 10.7938 14.9375H0.0347178C0.0116933 15.2887 0 15.643 0 16C0 16.357 0.0116933 16.7113 0.0347178 17.0625H10.7938ZM16 19.1875C14.6121 19.1875 13.4315 18.3005 12.9939 17.0625C12.8764 16.7302 12.8125 16.3726 12.8125 16C12.8125 15.6274 12.8764 15.2698 12.9939 14.9375C13.4315 13.6995 14.6121 12.8125 16 12.8125C17.3879 12.8125 18.5685 13.6995 19.0061 14.9375C19.1236 15.2698 19.1875 15.6274 19.1875 16C19.1875 16.3726 19.1236 16.7302 19.0061 17.0625C18.5685 18.3005 17.3879 19.1875 16 19.1875Z" fill="#303030"/>
<path d="M12.9939 17.0625C13.4315 18.3005 14.6121 19.1875 16 19.1875C17.3879 19.1875 18.5685 18.3005 19.0061 17.0625C19.1236 16.7302 19.1875 16.3726 19.1875 16C19.1875 15.6274 19.1236 15.2698 19.0061 14.9375C18.5685 13.6995 17.3879 12.8125 16 12.8125C14.6121 12.8125 13.4315 13.6995 12.9939 14.9375C12.8764 15.2698 12.8125 15.6274 12.8125 16C12.8125 16.3726 12.8764 16.7302 12.9939 17.0625Z" fill="white"/>
<path fill-rule="evenodd" clip-rule="evenodd" d="M16 0C7.52046 0 0.581572 6.5963 0.0347178 14.9375H10.7938C11.286 12.5126 13.4299 10.6875 16 10.6875C18.5701 10.6875 20.714 12.5126 21.2062 14.9375H31.9653C31.4184 6.5963 24.4795 0 16 0Z" fill="#C63333"/>
<path d="M16 21.3125C13.4299 21.3125 11.286 19.4874 10.7938 17.0625H0.0347178C0.581572 25.4037 7.52046 32 16 32C24.4795 32 31.4184 25.4037 31.9653 17.0625H21.2062C20.714 19.4874 18.5701 21.3125 16 21.3125Z" fill="white"/>
<path d="M10.7938 15.4375H11.2025L11.2838 15.037C11.7296 12.8405 13.6723 11.1875 16 11.1875C18.3277 11.1875 20.2704 12.8405 20.7162 15.037L20.7975 15.4375H21.2062H31.49C31.4966 15.6242 31.5 15.8117 31.5 16C31.5 16.1883 31.4966 16.3758 31.49 16.5625H21.2062H20.7975L20.7162 16.963C20.2704 19.1595 18.3277 20.8125 16 20.8125C13.6723 20.8125 11.7296 19.1595 11.2838 16.963L11.2025 16.5625H10.7938H0.510011C0.503356 16.3758 0.5 16.1883 0.5 16C0.5 15.8117 0.503356 15.6242 0.510011 15.4375H10.7938ZM16 0.5C24.033 0.5 30.639 6.61107 31.4223 14.4375H21.6C20.9173 11.9863 18.6692 10.1875 16 10.1875C13.3308 10.1875 11.0827 11.9863 10.4001 14.4375H0.577744C1.36097 6.61107 7.96702 0.5 16 0.5ZM21.6 17.5625H31.4223C30.639 25.3889 24.033 31.5 16 31.5C7.96702 31.5 1.36097 25.3889 0.577744 17.5625H10.4001C11.0827 20.0137 13.3308 21.8125 16 21.8125C18.6692 21.8125 20.9173 20.0137 21.6 17.5625ZM12.5225 17.2291C13.0284 18.6607 14.3937 19.6875 16 19.6875C17.6063 19.6875 18.9716 18.6607 19.4775 17.2291C19.6137 16.844 19.6875 16.4301 19.6875 16C19.6875 15.5699 19.6137 15.156 19.4775 14.7709C18.9716 13.3393 17.6063 12.3125 16 12.3125C14.3937 12.3125 13.0284 13.3393 12.5225 14.7709C12.3863 15.156 12.3125 15.5699 12.3125 16C12.3125 16.4301 12.3863 16.844 12.5225 17.2291ZM16 18.6875C14.8306 18.6875 13.8345 17.9404 13.4653 16.8959C13.3665 16.6163 13.3125 16.315 13.3125 16C13.3125 15.685 13.3665 15.3837 13.4653 15.1041C13.8345 14.0596 14.8306 13.3125 16 13.3125C17.1694 13.3125 18.1655 14.0596 18.5347 15.1041C18.6335 15.3837 18.6875 15.685 18.6875 16C18.6875 16.315 18.6335 16.6163 18.5347 16.8959C18.1655 17.9404 17.1694 18.6875 16 18.6875Z" stroke="#1F1F1F"/>
</g>
<defs>
<clipPath id="clip0_2_25">
<rect width="32" height="32" fill="white"/>
</clipPath>
</defs>
</svg>
