<svg width="96" height="96" viewBox="0 0 96 96" fill="none" xmlns="http://www.w3.org/2000/svg">
<path d="M36.286 45.6094C37.3935 40.1534 42.2172 36.0469 48 36.0469C53.7828 36.0469 58.6065 40.1534 59.714 45.6094L83.9219 45.6094C82.6915 26.8417 67.079 12 48 12C28.921 12 13.3085 26.8417 12.0781 45.6094H36.286Z" fill="#5F5F5F"/>
<path d="M41.2362 50.3906C42.2208 53.1762 44.8773 55.1719 48 55.1719C51.1227 55.1719 53.7792 53.1762 54.7638 50.3906C55.0281 49.6429 55.1719 48.8382 55.1719 48C55.1719 47.1618 55.0281 46.3571 54.7638 45.6094C53.7792 42.8238 51.1227 40.8281 48 40.8281C44.8773 40.8281 42.2208 42.8238 41.2362 45.6094C40.9719 46.3571 40.8281 47.1618 40.8281 48C40.8281 48.8382 40.9719 49.6429 41.2362 50.3906Z" fill="#5F5F5F"/>
<path d="M48 59.9531C42.2172 59.9531 37.3935 55.8466 36.286 50.3906H12.0781C13.3085 69.1583 28.921 84 48 84C67.079 84 82.6915 69.1583 83.9219 50.3906L59.714 50.3906C58.6065 55.8466 53.7828 59.9531 48 59.9531Z" fill="#5F5F5F"/>
</svg>
